<?xml version="1.0" encoding="UTF-8" standalone="no"?>
<!-- Uploaded to: SVG Repo, www.svgrepo.com, Generator: SVG Repo Mixer Tools -->

<svg
   width="374.71094"
   height="478.7641"
   viewBox="0 0 239.815 306.40902"
   version="1.1"
   id="svg1"
   sodipodi:docname="pinball-wizard.svg"
   xml:space="preserve"
   inkscape:version="1.4.2 (f4327f4, 2025-05-13)"
   xmlns:inkscape="http://www.inkscape.org/namespaces/inkscape"
   xmlns:sodipodi="http://sodipodi.sourceforge.net/DTD/sodipodi-0.dtd"
   xmlns="http://www.w3.org/2000/svg"
   xmlns:svg="http://www.w3.org/2000/svg"><defs
     id="defs1" /><sodipodi:namedview
     id="namedview1"
     pagecolor="#ffffff"
     bordercolor="#000000"
     borderopacity="0.25"
     inkscape:showpageshadow="2"
     inkscape:pageopacity="0.0"
     inkscape:pagecheckerboard="0"
     inkscape:deskcolor="#d1d1d1"
     inkscape:clip-to-page="false"
     inkscape:zoom="1.06875"
     inkscape:cx="305.02924"
     inkscape:cy="301.75439"
     inkscape:window-width="1920"
     inkscape:window-height="1057"
     inkscape:window-x="-8"
     inkscape:window-y="-8"
     inkscape:window-maximized="1"
     inkscape:current-layer="svg1" /><g
     id="g8"
     transform="translate(-21.132,114.52903)"
     style="stroke:#bdbdbd;stroke-opacity:1;stroke-width:1.27999999;stroke-dasharray:none;fill:#bdbdbd;fill-opacity:1"><path
       d="m 99.162,35.82 a 78.03,78.03 0 0 0 -78.03,78.03 78.03,78.03 0 0 0 78.03,78.03 78.03,78.03 0 0 0 78.03,-78.03 78.03,78.03 0 0 0 -78.03,-78.03 z"
       id="path1"
       style="display:inline;stroke:#bdbdbd;stroke-opacity:1;stroke-width:1.27999999;stroke-dasharray:none;fill:#bdbdbd;fill-opacity:1" /><path
       d="m 95.26,47.525 a 62.423,62.423 0 0 1 30.79,8.172 78.03,78.03 0 0 0 -7.38,-0.37 78.03,78.03 0 0 0 -78.03,78.028 78.03,78.03 0 0 0 0.422,7.413 62.423,62.423 0 0 1 -8.224,-30.82 62.423,62.423 0 0 1 62.422,-62.424 z"
       id="path5"
       style="fill:#bdbdbd;fill-opacity:1;stroke:#bdbdbd;stroke-opacity:1;stroke-width:1.27999999;stroke-dasharray:none" /></g><g
     id="g1"
     transform="matrix(9.3573759,4.9372273,-4.9372273,9.3573759,113.00513,-58.887303)"
     style="fill:#00008a;fill-opacity:1;stroke:#000000;stroke-opacity:1;stroke-width:0.12098283;stroke-dasharray:none">
	<path
   style="fill:#00008a;fill-opacity:1;stroke:#000000;stroke-opacity:1;stroke-width:0.12098283;stroke-dasharray:none"
   d="m 10.31,2.638 c 0.107,-0.029 0.216,-0.039 0.318,-0.014 0.351,0.085 0.641,0.563 0.841,1.379 0.157,0.653 0.445,1.529 1.107,1.586 0.021,0.002 0.042,0.003 0.063,0.003 0.594,0 1.066,-0.72 1.321,-1.207 0.302,-0.362 0.519,-0.81 0.607,-1.013 C 14.638,3.207 14.562,3.015 14.397,2.943 14.231,2.87 14.04,2.947 13.968,3.113 13.895,3.282 13.802,3.458 13.702,3.621 13.624,3.65 13.555,3.711 13.519,3.795 13.483,3.878 13.442,3.962 13.398,4.045 13.277,4.181 13.163,4.264 13.078,4.254 12.984,4.247 12.753,4.008 12.547,3.164 12.469,2.842 12.372,2.566 12.263,2.326 12.749,2.556 13.284,2.69 13.65,2.381 14.255,1.871 13.809,0.587 13.658,0.205 13.591,0.038 13.402,-0.043 13.235,0.022 13.067,0.088 12.986,0.277 13.052,0.444 13.292,1.057 13.38,1.756 13.231,1.882 13.158,1.943 12.825,1.937 12.083,1.486 11.131,0.905 10.374,0.777 9.838,1.105 9.359,1.395 9.2,1.964 9.147,2.385 9.117,2.465 9.059,2.611 8.977,2.815 8.963,2.84 8.952,2.866 8.946,2.894 7.823,5.699 2.957,17.876 2.828,18.769 c -0.146,1.009 13.024,0.618 13.688,0 C 17.124,18.202 11.294,4.871 10.31,2.638 Z M 10.782,1.991 C 10.747,1.983 10.714,1.986 10.679,1.98 10.812,1.933 10.949,1.909 11.075,1.94 11.383,2.014 11.639,2.406 11.834,3.046 11.572,2.454 11.222,2.098 10.782,1.991 Z m 2.031,2.862 c -0.064,0.053 -0.125,0.086 -0.173,0.086 -0.003,0 -0.007,0 -0.01,0 -0.083,-0.007 -0.274,-0.196 -0.459,-0.826 0.148,0.337 0.352,0.626 0.642,0.74 z m -3.907,3.528 0.542,-1.1 0.542,1.1 1.215,0.177 -0.879,0.855 0.208,1.208 L 9.448,10.052 8.363,10.621 8.57,9.413 7.693,8.558 Z m 1.426,9.276 C 8.938,18.584 7.058,18.205 6.131,16.812 5.204,15.417 5.583,13.538 6.977,12.61 7.155,12.493 7.339,12.395 7.53,12.319 6.543,13.32 6.357,14.908 7.166,16.123 c 0.809,1.216 2.344,1.659 3.647,1.136 -0.142,0.147 -0.303,0.28 -0.481,0.398 z m 2.694,-1.483 -1.461,-0.768 -1.46,0.768 0.278,-1.627 -1.183,-1.151 1.635,-0.237 0.729,-1.48 0.73,1.48 1.633,0.237 -1.183,1.151 z"
   id="path1-4" />
</g><path
     style="fill:#ffff3f;fill-opacity:1;stroke-width:1.46152;stroke-dasharray:none"
     d="m 176.84211,244.65977 c -17.98457,-3.60021 -33.73439,-18.3869 -38.31463,-35.97164 -7.71775,-29.63045 13.30666,-59.29721 43.86942,-61.90248 l 6.60895,-0.56337 -5.87112,2.99685 c -11.27483,5.75514 -21.13251,17.96808 -24.93918,30.89783 -1.77322,6.02293 -2.04856,19.01331 -0.54476,25.70153 3.68944,16.40899 17.57542,31.17246 34.12322,36.27955 6.09882,1.88225 6.37991,2.08027 3.78155,2.66399 -3.84551,0.86389 -14.16895,0.80748 -18.71345,-0.10226 z"
     id="path8"
     transform="scale(0.64)" /><path
     style="fill:#ffff3f;fill-opacity:1;stroke-width:1.46152;stroke-dasharray:none"
     d="m 234.44449,232.53881 -6.89738,-10.26822 -13.37301,-0.2581 -13.37301,-0.2581 8.00043,-10.46814 8.00043,-10.46814 -3.93667,-11.81293 c -2.16518,-6.4971 -3.70941,-12.04019 -3.43164,-12.31797 0.27778,-0.27777 5.84495,1.39456 12.37149,3.7163 l 11.86645,4.22134 10.07384,-7.40015 c 5.54061,-4.07007 10.39541,-7.40014 10.78844,-7.40014 0.39303,0 0.48523,5.79396 0.2049,12.87547 l -0.50971,12.87548 10.19542,7.40835 c 5.60748,4.0746 10.19483,7.64906 10.19412,7.94324 -7.2e-4,0.29419 -2.6323,1.2967 -5.84796,2.2278 -3.21566,0.9311 -8.66296,2.52019 -12.10511,3.53132 l -6.25846,1.83841 -4.00702,12.14119 c -2.20386,6.67766 -4.24353,12.1412 -4.5326,12.1412 -0.28907,0 -3.6294,-4.6207 -7.42295,-10.26821 z"
     id="path9"
     transform="scale(0.64)" /><path
     style="fill:#ffff3f;fill-opacity:1;stroke-width:1.46152;stroke-dasharray:none;stroke:none"
     d="m 242.87286,135.14714 -5.08035,-7.42784 h -9.65649 c -5.31107,0 -9.65649,-0.24525 -9.65649,-0.54499 0,-0.29975 2.56847,-3.86518 5.70771,-7.92318 l 5.70771,-7.37819 -2.89018,-8.61755 c -1.5896,-4.739648 -2.69727,-8.81045 -2.4615,-9.046222 0.23577,-0.235773 4.24915,0.905424 8.91861,2.535992 4.66947,1.630568 8.99815,2.674963 9.61929,2.320877 0.62115,-0.354085 3.9177,-2.683533 7.32567,-5.176551 3.40798,-2.493019 6.46061,-4.532761 6.78363,-4.532761 0.32302,0 0.58731,4.214843 0.58731,9.366318 v 9.366317 l 7.62043,5.58198 c 4.80935,3.52285 7.13917,5.76206 6.31579,6.07013 -0.71755,0.26847 -4.80816,1.50139 -9.09023,2.73981 -4.28207,1.23843 -7.90898,2.39729 -8.0598,2.57526 -0.15083,0.17797 -1.43644,3.90252 -2.85693,8.27679 -1.42048,4.37427 -2.8462,8.24312 -3.16826,8.59743 -0.32206,0.35432 -2.87172,-2.69831 -5.66592,-6.78362 z"
     id="path10"
     transform="scale(0.64)" /><path
     style="fill:#ffffff;fill-opacity:1;stroke:#ffffff;stroke-width:1.32324;stroke-dasharray:none;stroke-opacity:1"
     d="m 27.620769,390.85224 c -3.071654,-6.64792 -5.524682,-14.13052 -7.23908,-22.08175 -1.685957,-7.81932 -1.690985,-28.32878 -0.0089,-36.30625 8.357687,-39.63722 37.449258,-68.72378 77.216217,-77.20291 7.963914,-1.69807 28.425214,-1.69807 36.389124,0 7.50343,1.59989 18.038,5.15042 23.59778,7.95331 l 4.51981,2.2786 -5.95395,-0.33903 c -11.06669,-0.63017 -28.91966,1.80847 -40.3582,5.51276 -19.986239,6.47239 -34.750476,15.50679 -49.63189,30.3703 -12.42884,12.41389 -20.347647,24.17884 -26.75055,39.74322 -6.170833,15.00025 -8.776348,28.12274 -8.890588,44.77684 -0.0418,6.09411 -0.107255,11.08107 -0.145451,11.08214 -0.0382,10e-4 -1.273141,-2.60318 -2.744322,-5.78723 z"
     id="path11"
     transform="scale(0.64)" /></svg>
